REM DIRINDEX 1\4,1\2\5,1\2\6,1\2\7,1\3\8,1\3\9,1\3\10,1\3\11
REM DIRNAME folder01,folder02,folder03,folder04,folder05,folder06,folder07,folder08,folder09,folder10,folder11
TITLE ""
FILE "t_k_468-478.mp3" MP3
  TRACK 01 AUDIO
    TITLE "5:cjc108_1408"
    INDEX 01 00:00:00
  TRACK 02 AUDIO
    TITLE "0:"
    INDEX 01 00:00:74
  TRACK 03 AUDIO
    TITLE "6:cjc108_1409"
    INDEX 01 00:01:03
  TRACK 04 AUDIO
    TITLE "0:"
    INDEX 01 00:03:41
  TRACK 05 AUDIO
    TITLE "7:cjc108_1410"
    INDEX 01 00:03:61
  TRACK 06 AUDIO
    TITLE "0:"
    INDEX 01 00:09:67
  TRACK 07 AUDIO
    TITLE "5:cjc108_1411"
    INDEX 01 00:10:57
  TRACK 08 AUDIO
    TITLE "0:"
    INDEX 01 00:11:74
  TRACK 09 AUDIO
    TITLE "6:cjc108_1412"
    INDEX 01 00:12:20
  TRACK 10 AUDIO
    TITLE "0:"
    INDEX 01 00:14:41
  TRACK 11 AUDIO
    TITLE "7:cjc108_1413"
    INDEX 01 00:14:58
  TRACK 12 AUDIO
    TITLE "0:"
    INDEX 01 00:20:71
  TRACK 13 AUDIO
    TITLE "5:cjc108_1414"
    INDEX 01 00:21:53
  TRACK 14 AUDIO
    TITLE "0:"
    INDEX 01 00:22:56
  TRACK 15 AUDIO
    TITLE "6:cjc108_1415"
    INDEX 01 00:22:72
  TRACK 16 AUDIO
    TITLE "0:"
    INDEX 01 00:24:29
  TRACK 17 AUDIO
    TITLE "7:cjc108_1416"
    INDEX 01 00:24:47
  TRACK 18 AUDIO
    TITLE "0:"
    INDEX 01 00:29:68
  TRACK 19 AUDIO
    TITLE "5:cjc108_1417"
    INDEX 01 00:30:54
  TRACK 20 AUDIO
    TITLE "0:"
    INDEX 01 00:31:65
  TRACK 21 AUDIO
    TITLE "6:cjc108_1418"
    INDEX 01 00:32:15
  TRACK 22 AUDIO
    TITLE "0:"
    INDEX 01 00:34:71
  TRACK 23 AUDIO
    TITLE "7:cjc108_1419"
    INDEX 01 00:35:10
  TRACK 24 AUDIO
    TITLE "0:"
    INDEX 01 00:39:47
  TRACK 25 AUDIO
    TITLE "5:cjc108_1420"
    INDEX 01 00:40:34
  TRACK 26 AUDIO
    TITLE "0:"
    INDEX 01 00:41:47
  TRACK 27 AUDIO
    TITLE "6:cjc108_1421"
    INDEX 01 00:41:69
  TRACK 28 AUDIO
    TITLE "0:"
    INDEX 01 00:44:32
  TRACK 29 AUDIO
    TITLE "7:cjc108_1422"
    INDEX 01 00:44:54
  TRACK 30 AUDIO
    TITLE "0:"
    INDEX 01 00:50:62
  TRACK 31 AUDIO
    TITLE "5:cjc108_1423"
    INDEX 01 00:51:42
  TRACK 32 AUDIO
    TITLE "0:"
    INDEX 01 00:52:59
  TRACK 33 AUDIO
    TITLE "6:cjc108_1424"
    INDEX 01 00:53:04
  TRACK 34 AUDIO
    TITLE "0:"
    INDEX 01 00:54:19
  TRACK 35 AUDIO
    TITLE "7:cjc108_1425"
    INDEX 01 00:54:40
  TRACK 36 AUDIO
    TITLE "0:"
    INDEX 01 01:00:43
  TRACK 37 AUDIO
    TITLE "5:cjc108_1426"
    INDEX 01 01:01:29
  TRACK 38 AUDIO
    TITLE "0:"
    INDEX 01 01:02:50
  TRACK 39 AUDIO
    TITLE "6:cjc108_1427"
    INDEX 01 01:02:71
  TRACK 40 AUDIO
    TITLE "0:"
    INDEX 01 01:05:38
  TRACK 41 AUDIO
    TITLE "7:cjc108_1428"
    INDEX 01 01:05:58
  TRACK 42 AUDIO
    TITLE "0:"
    INDEX 01 01:11:17
  TRACK 43 AUDIO
    TITLE "5:cjc108_1429"
    INDEX 01 01:12:15
  TRACK 44 AUDIO
    TITLE "0:"
    INDEX 01 01:13:32
  TRACK 45 AUDIO
    TITLE "6:cjc108_1430"
    INDEX 01 01:13:40
  TRACK 46 AUDIO
    TITLE "0:"
    INDEX 01 01:15:68
  TRACK 47 AUDIO
    TITLE "7:cjc108_1431"
    INDEX 01 01:16:16
  TRACK 48 AUDIO
    TITLE "0:"
    INDEX 01 01:20:73
  TRACK 49 AUDIO
    TITLE "5:cjc108_1432"
    INDEX 01 01:21:67
  TRACK 50 AUDIO
    TITLE "0:"
    INDEX 01 01:23:05
  TRACK 51 AUDIO
    TITLE "6:cjc108_1433"
    INDEX 01 01:23:24
  TRACK 52 AUDIO
    TITLE "0:"
    INDEX 01 01:25:62
  TRACK 53 AUDIO
    TITLE "7:cjc108_1434"
    INDEX 01 01:26:03
  TRACK 54 AUDIO
    TITLE "0:"
    INDEX 01 01:30:73
  TRACK 55 AUDIO
    TITLE "5:cjc108_1435"
    INDEX 01 01:31:61
  TRACK 56 AUDIO
    TITLE "0:"
    INDEX 01 01:33:01
  TRACK 57 AUDIO
    TITLE "6:cjc108_1436"
    INDEX 01 01:33:13
  TRACK 58 AUDIO
    TITLE "0:"
    INDEX 01 01:35:49
  TRACK 59 AUDIO
    TITLE "7:cjc108_1437"
    INDEX 01 01:35:61
  TRACK 60 AUDIO
    TITLE "0:"
    INDEX 01 01:40:05
  TRACK 61 AUDIO
    TITLE "5:cjc108_1438"
    INDEX 01 01:40:70
  TRACK 62 AUDIO
    TITLE "0:"
    INDEX 01 01:42:02
  TRACK 63 AUDIO
    TITLE "6:cjc108_1439"
    INDEX 01 01:42:24
  TRACK 64 AUDIO
    TITLE "0:"
    INDEX 01 01:45:61
  TRACK 65 AUDIO
    TITLE "7:cjc108_1440"
    INDEX 01 01:46:04
  TRACK 66 AUDIO
    TITLE "0:"
    INDEX 01 01:49:71
